# xmcd CD database file
#
# Track frame offsets:
#	150
#	13722
#	31825
#	44338
#	60155
#	74551
#	91401
#	102349
#	113924
#	127739
#	140637
#	154133
#	168599
#	181874
#	198257
#	213871
#	229940
#	245149
#	260749
#	280170
#	294114
#	311589
#
# Disc length: 4359 seconds
#
# Revision: 1
# Processed by: cddbd v1.5.2PL0 Copyright (c) Steve Scherf et al.
# Submitted via: Feurio! 1.68 - http://www.feurio.com
#
DISCID=3a110516
DTITLE=ZLATNE ZICE SLAVONIJE - Vecer Tamburaske Pjesme
DYEAR=1900
DGENRE=blues
TTITLE0=Slavonski Dukati I Gost Kico - Sokac
TTITLE1=Najbolji Hrvatski Tamburasi - Siri Grane Sokadijo Sveta
TTITLE2=Kico, Sima, Ciro I Slavonski Dukati -  Tri Tenora
TTITLE3=Slavonske Lole - Curo Moja Garava
TTITLE4=Viktorija Kulisic Denka - Lolo Moja Becarino
TTITLE5=Boris Ciro Gasparac - Zora Puce, A Ja Jos Kod Kuce
TTITLE6=Sima Jovanovac - Dida Slavi Sto Je Ziv
TTITLE7=Prijatelji - Kad Procvate Ruzmarin
TTITLE8=Duka Caic - Hej Ljubavi Nikad Preboljena
TTITLE9=Stjepan Jersek Stef -  Sve Postivam, Svoje Uzivam
TTITLE10=Kristali - Sve Su Pjesme Otpjevane
TTITLE11=Marija Pavkovic Snasa I Slavonski Dukati  -  Moja Drugo
TTITLE12=Patria - Zdravica
TTITLE13=Ravnica - Tuga
TTITLE14=Zec I Sitan Vez - Ne Krivite Ljudi Mene
TTITLE15=Trenk - Ako Umre Ljubav
TTITLE16=Dzentlmeni I Gost Ignac Shon - Crni Kisobran
TTITLE17=Zlatna Dolina - Od Ponoci Do Ponoci
TTITLE18=Zdenac - Od Bukovlja Do Vrpolja
TTITLE19=Zvona - Sokacka Ceznja
TTITLE20=Mps Babogredci I Ts Panonija -  Zenski Svit
TTITLE21=Ana Baketaric - Pozegi
EXTD=
EXTT0=
EXTT1=
EXTT2=
EXTT3=
EXTT4=
EXTT5=
EXTT6=
EXTT7=
EXTT8=
EXTT9=
EXTT10=
EXTT11=
EXTT12=
EXTT13=
EXTT14=
EXTT15=
EXTT16=
EXTT17=
EXTT18=
EXTT19=
EXTT20=
EXTT21=
PLAYORDER=
